<mxfile host="65bd71144e">
    <diagram id="kgpKYQtTHZ0yAKxKKP6v" name="Page-1">
        <mxGraphModel dx="1401" dy="-1623" grid="1" gridSize="10" guides="1" tooltips="1" connect="1" arrows="1" fold="1" page="1" pageScale="1" pageWidth="850" pageHeight="1100" math="0" shadow="0">
            <root>
                <mxCell id="0"/>
                <mxCell id="1" parent="0"/>
                <mxCell id="1Q3aQoQ077KybnQAMOsV-99" value="Scheduling Client" style="shape=umlLifeline;perimeter=lifelinePerimeter;container=1;collapsible=0;recursiveResize=0;rounded=0;shadow=0;strokeWidth=1;" parent="1" vertex="1">
                    <mxGeometry x="45" y="2280" width="100" height="160" as="geometry"/>
                </mxCell>
                <mxCell id="1Q3aQoQ077KybnQAMOsV-100" value="" style="points=[];perimeter=orthogonalPerimeter;rounded=0;shadow=0;strokeWidth=1;" parent="1Q3aQoQ077KybnQAMOsV-99" vertex="1">
                    <mxGeometry x="45" y="70" width="10" height="60" as="geometry"/>
                </mxCell>
                <mxCell id="1Q3aQoQ077KybnQAMOsV-101" value="Trigger" style="verticalAlign=bottom;startArrow=oval;endArrow=block;startSize=8;shadow=0;strokeWidth=1;" parent="1Q3aQoQ077KybnQAMOsV-99" target="1Q3aQoQ077KybnQAMOsV-100" edge="1">
                    <mxGeometry relative="1" as="geometry">
                        <mxPoint x="-15" y="70" as="sourcePoint"/>
                    </mxGeometry>
                </mxCell>
                <mxCell id="1Q3aQoQ077KybnQAMOsV-102" value="Scheduling Server" style="shape=umlLifeline;perimeter=lifelinePerimeter;container=1;collapsible=0;recursiveResize=0;rounded=0;shadow=0;strokeWidth=1;" parent="1" vertex="1">
                    <mxGeometry x="400" y="2280" width="140" height="160" as="geometry"/>
                </mxCell>
                <mxCell id="1Q3aQoQ077KybnQAMOsV-103" value="" style="points=[];perimeter=orthogonalPerimeter;rounded=0;shadow=0;strokeWidth=1;" parent="1Q3aQoQ077KybnQAMOsV-102" vertex="1">
                    <mxGeometry x="65" y="80" width="10" height="50" as="geometry"/>
                </mxCell>
                <mxCell id="1Q3aQoQ077KybnQAMOsV-104" value="Response containing booked Appointments" style="verticalAlign=bottom;endArrow=open;dashed=1;endSize=8;exitX=0;exitY=0.95;shadow=0;strokeWidth=1;entryX=1.12;entryY=0.638;entryDx=0;entryDy=0;entryPerimeter=0;" parent="1Q3aQoQ077KybnQAMOsV-102" target="1Q3aQoQ077KybnQAMOsV-100" edge="1">
                    <mxGeometry relative="1" as="geometry">
                        <mxPoint x="-265" y="109.99999999999989" as="targetPoint"/>
                        <mxPoint x="65" y="109.99999999999989" as="sourcePoint"/>
                    </mxGeometry>
                </mxCell>
                <mxCell id="1Q3aQoQ077KybnQAMOsV-105" value="GET Request for existing Appointments" style="verticalAlign=bottom;endArrow=block;entryX=0;entryY=0;shadow=0;strokeWidth=1;" parent="1" source="1Q3aQoQ077KybnQAMOsV-100" target="1Q3aQoQ077KybnQAMOsV-103" edge="1">
                    <mxGeometry relative="1" as="geometry">
                        <mxPoint x="200" y="2360" as="sourcePoint"/>
                    </mxGeometry>
                </mxCell>
            </root>
        </mxGraphModel>
    </diagram>
</mxfile>